<?xml version="1.0" encoding="utf-8"?>
<!-- Generated by Mocodo 4.3.2 -->
<svg width="528" height="506" viewBox="0 0 528 506" xmlns="http://www.w3.org/2000/svg">
<rect x="0" y="0" width="528" height="506" fill="#ffffff" stroke="none" stroke-width="0"/>

<!-- Association APPARTIENT -->
<g>
	<line x1="272" y1="60" x2="272" y2="161" stroke="#d6604d" stroke-width="2"/>
	<line x1="272" y1="270" x2="272" y2="161" stroke="#d6604d" stroke-width="2"/>
	<g>
		<path d="M304 136 a14 14 90 0 1 14 14 V161 h-92 V150 a14 14 90 0 1 14 -14" fill="#f4a582" stroke="#f4a582" stroke-width="0"/>
		<path d="M318 161 v11 a14 14 90 0 1 -14 14 H240 a14 14 90 0 1 -14 -14 V161 H92" fill="#fddbc7" stroke="#fddbc7" stroke-width="0"/>
		<rect x="226" y="136" width="92" height="50" fill="none" rx="14" stroke="#d6604d" stroke-width="2"/>
		<line x1="226" y1="161" x2="318" y2="161" stroke="#d6604d" stroke-width="1"/>
		<text x="234" y="153.75" fill="#000000" font-family="Verdana" font-size="12">APPARTIENT</text>
	</g>
	<text x="277" y="128" fill="#4d4d4d" font-family="Verdana" font-size="12">0,N</text>
	<text x="277" y="203" fill="#4d4d4d" font-family="Verdana" font-size="12">1,1</text>
</g>

<!-- Association GERE -->
<g>
	<line x1="58" y1="270" x2="163" y2="270" stroke="#d6604d" stroke-width="2"/>
	<line x1="272" y1="270" x2="163" y2="270" stroke="#d6604d" stroke-width="2"/>
	<g>
		<path d="M173 245 a14 14 90 0 1 14 14 V270 h-48 V259 a14 14 90 0 1 14 -14" fill="#f4a582" stroke="#f4a582" stroke-width="0"/>
		<path d="M187 270 v11 a14 14 90 0 1 -14 14 H153 a14 14 90 0 1 -14 -14 V270 H48" fill="#fddbc7" stroke="#fddbc7" stroke-width="0"/>
		<rect x="139" y="245" width="48" height="50" fill="none" rx="14" stroke="#d6604d" stroke-width="2"/>
		<line x1="139" y1="270" x2="187" y2="270" stroke="#d6604d" stroke-width="1"/>
		<text x="146" y="262.75" fill="#000000" font-family="Verdana" font-size="12">GÈRE</text>
	</g>
	<text x="112" y="287" fill="#4d4d4d" font-family="Verdana" font-size="12">0,N</text>
	<text x="193" y="287" fill="#4d4d4d" font-family="Verdana" font-size="12">1,1</text>
</g>

<!-- Association FAIT -->
<g>
	<line x1="272" y1="270" x2="379" y2="270" stroke="#d6604d" stroke-width="2"/>
	<line x1="476" y1="270" x2="379" y2="270" stroke="#d6604d" stroke-width="2"/>
	<g>
		<path d="M387 245 a14 14 90 0 1 14 14 V270 h-44 V259 a14 14 90 0 1 14 -14" fill="#f4a582" stroke="#f4a582" stroke-width="0"/>
		<path d="M401 270 v11 a14 14 90 0 1 -14 14 H371 a14 14 90 0 1 -14 -14 V270 H44" fill="#fddbc7" stroke="#fddbc7" stroke-width="0"/>
		<rect x="357" y="245" width="44" height="50" fill="none" rx="14" stroke="#d6604d" stroke-width="2"/>
		<line x1="357" y1="270" x2="401" y2="270" stroke="#d6604d" stroke-width="1"/>
		<text x="365" y="262.75" fill="#000000" font-family="Verdana" font-size="12">FAIT</text>
	</g>
	<text x="330" y="287" fill="#4d4d4d" font-family="Verdana" font-size="12">1,N</text>
	<text x="406" y="287" fill="#4d4d4d" font-family="Verdana" font-size="12">0,N</text>
</g>

<!-- Association EVALUE -->
<g>
	<line x1="272" y1="463" x2="272" y2="379" stroke="#d6604d" stroke-width="2"/>
	<line x1="272" y1="270" x2="272" y2="379" stroke="#d6604d" stroke-width="2"/>
	<g>
		<path d="M289 354 a14 14 90 0 1 14 14 V379 h-62 V368 a14 14 90 0 1 14 -14" fill="#f4a582" stroke="#f4a582" stroke-width="0"/>
		<path d="M303 379 v11 a14 14 90 0 1 -14 14 H255 a14 14 90 0 1 -14 -14 V379 H62" fill="#fddbc7" stroke="#fddbc7" stroke-width="0"/>
		<rect x="241" y="354" width="62" height="50" fill="none" rx="14" stroke="#d6604d" stroke-width="2"/>
		<line x1="241" y1="379" x2="303" y2="379" stroke="#d6604d" stroke-width="1"/>
		<text x="248" y="371.75" fill="#000000" font-family="Verdana" font-size="12">ÉVALUE</text>
	</g>
	<text x="277" y="421" fill="#4d4d4d" font-family="Verdana" font-size="12">1,1</text>
	<text x="277" y="346" fill="#4d4d4d" font-family="Verdana" font-size="12">0,N</text>
</g>

<!-- Entity VILLE -->
<g>
	<g>
		<rect x="228" y="9" width="88" height="25" fill="#bababa" stroke="none" stroke-width="0" opacity="1"/>
		<rect x="228" y="34" width="88" height="77" fill="#e0e0e0" stroke="none" stroke-width="0" opacity="1"/>
		<rect x="228" y="9" width="88" height="102" fill="none" stroke="#878787" stroke-width="2" opacity="1"/>
		<line x1="228" y1="34" x2="316" y2="34" stroke="#878787" stroke-width="1"/>
	</g>
	<text x="255" y="26.75" fill="#000000" font-family="Verdana" font-size="12">VILLE</text>
	<text x="233" y="51.8" fill="#000000" font-family="Verdana" font-size="12">code ville</text>
	<line x1="233" y1="54" x2="291" y2="54" stroke="#000000" stroke-width="1"/>
	<text x="233" y="68.8" fill="#000000" font-family="Verdana" font-size="12">nom</text>
	<text x="233" y="85.8" fill="#000000" font-family="Verdana" font-size="12">code postal</text>
	<text x="233" y="102.8" fill="#000000" font-family="Verdana" font-size="12">coordonnées</text>
</g>

<!-- Entity MANAGER -->
<g>
	<g>
		<rect x="9" y="211" width="98" height="25" fill="#bababa" stroke="none" stroke-width="0" opacity="1"/>
		<rect x="9" y="236" width="98" height="93" fill="#e0e0e0" stroke="none" stroke-width="0" opacity="1"/>
		<rect x="9" y="211" width="98" height="118" fill="none" stroke="#878787" stroke-width="2" opacity="1"/>
		<line x1="9" y1="236" x2="107" y2="236" stroke="#878787" stroke-width="1"/>
	</g>
	<text x="27" y="228.75" fill="#000000" font-family="Verdana" font-size="12">MANAGER</text>
	<text x="14" y="253.8" fill="#000000" font-family="Verdana" font-size="12">code manager</text>
	<line x1="14" y1="256" x2="101" y2="256" stroke="#000000" stroke-width="1"/>
	<text x="14" y="270.8" fill="#000000" font-family="Verdana" font-size="12">email</text>
	<text x="14" y="287.8" fill="#000000" font-family="Verdana" font-size="12">téléphone</text>
	<text x="14" y="304.8" fill="#000000" font-family="Verdana" font-size="12">prénom</text>
	<text x="14" y="321.8" fill="#000000" font-family="Verdana" font-size="12">nom</text>
</g>

<!-- Entity RESTAURANT -->
<g>
	<g>
		<rect x="219" y="211" width="106" height="25" fill="#bababa" stroke="none" stroke-width="0" opacity="1"/>
		<rect x="219" y="236" width="106" height="93" fill="#e0e0e0" stroke="none" stroke-width="0" opacity="1"/>
		<rect x="219" y="211" width="106" height="118" fill="none" stroke="#878787" stroke-width="2" opacity="1"/>
		<line x1="219" y1="236" x2="325" y2="236" stroke="#878787" stroke-width="1"/>
	</g>
	<text x="231" y="228.75" fill="#000000" font-family="Verdana" font-size="12">RESTAURANT</text>
	<text x="224" y="253.8" fill="#000000" font-family="Verdana" font-size="12">code restaurant</text>
	<line x1="224" y1="256" x2="320" y2="256" stroke="#000000" stroke-width="1"/>
	<text x="224" y="270.8" fill="#000000" font-family="Verdana" font-size="12">name</text>
	<text x="224" y="287.8" fill="#000000" font-family="Verdana" font-size="12">description</text>
	<text x="224" y="304.8" fill="#000000" font-family="Verdana" font-size="12">terrace</text>
	<text x="224" y="321.8" fill="#000000" font-family="Verdana" font-size="12">adresse</text>
</g>

<!-- Entity CUISINE -->
<g>
	<g>
		<rect x="433" y="236" width="86" height="25" fill="#bababa" stroke="none" stroke-width="0" opacity="1"/>
		<rect x="433" y="261" width="86" height="43" fill="#e0e0e0" stroke="none" stroke-width="0" opacity="1"/>
		<rect x="433" y="236" width="86" height="68" fill="none" stroke="#878787" stroke-width="2" opacity="1"/>
		<line x1="433" y1="261" x2="519" y2="261" stroke="#878787" stroke-width="1"/>
	</g>
	<text x="450" y="253.75" fill="#000000" font-family="Verdana" font-size="12">CUISINE</text>
	<text x="438" y="278.8" fill="#000000" font-family="Verdana" font-size="12">code cuisine</text>
	<line x1="438" y1="281" x2="513" y2="281" stroke="#000000" stroke-width="1"/>
	<text x="438" y="295.8" fill="#000000" font-family="Verdana" font-size="12">label</text>
</g>

<!-- Entity NOTE -->
<g>
	<g>
		<rect x="237" y="429" width="70" height="25" fill="#bababa" stroke="none" stroke-width="0" opacity="1"/>
		<rect x="237" y="454" width="70" height="43" fill="#e0e0e0" stroke="none" stroke-width="0" opacity="1"/>
		<rect x="237" y="429" width="70" height="68" fill="none" stroke="#878787" stroke-width="2" opacity="1"/>
		<line x1="237" y1="454" x2="307" y2="454" stroke="#878787" stroke-width="1"/>
	</g>
	<text x="255" y="446.75" fill="#000000" font-family="Verdana" font-size="12">NOTE</text>
	<text x="242" y="471.8" fill="#000000" font-family="Verdana" font-size="12">code note</text>
	<line x1="242" y1="474" x2="302" y2="474" stroke="#000000" stroke-width="1"/>
	<text x="242" y="488.8" fill="#000000" font-family="Verdana" font-size="12">valeur</text>
</g>
</svg>